# xmcd CD database file
# Copyright (C) 1993-1998 Ti Kan
# 
# Track frame offsets:
#     150
#     16275
#     35775
#     55725
#     92625
#     116550
#     126075
#     135525
#     149175
#     160200
#     181425
#     194775
# 
# Disc length: 2813 seconds
# 
# Revision: 1
# Processed by: cddbd v1.4b41PL1 Copyright (c) Steve Scherf et al.
# Submitted via: DiscPlay 4.0.4
# 
DISCID=b40afb0c
DTITLE=Various Artist - The Ultimate Blues Collection Vol. One Disc 3
DYEAR=1900
DGENRE=
TTITLE0=Memphis Piano Red - Rocky Mountain Blues
TTITLE1=Memphis Piano Red - Red's Boogie
TTITLE2=Memphis Piano Red - My Life Is So Miserable
TTITLE3=Champion Jack Dupree - I Ain't Good Lookin'
TTITLE4=Champion Jack Dupree - Reminiscing Fats W.
TTITLE5=Blind John Davis - Dippermouth Blues
TTITLE6=Blind John Davis - Jim Town Blues
TTITLE7=Blind John Davis - St. James Infirmary
TTITLE8=Blind John Davis - Cow Cow Blues
TTITLE9=Blind John Davis - Moanin' The Blues
TTITLE10=Big Moose Walker - Would You Baby
TTITLE11=Big Moose Walker - Somebody Got To Go
EXTD=
EXTT0=
EXTT1=
EXTT2=
EXTT3=
EXTT4=
EXTT5=
EXTT6=
EXTT7=
EXTT8=
EXTT9=
EXTT10=
EXTT11=
PLAYORDER=
